<svg width="240" height="29" viewBox="0 0 240 29" fill="none" xmlns="http://www.w3.org/2000/svg">
<rect width="119.273" height="27.1389" transform="matrix(1 0 -0.371206 0.928551 10.0741 0)" fill="white"/>
<rect width="119.273" height="27.1389" transform="matrix(1 0 -0.371206 0.928551 120.074 0)" fill="white"/>
<path d="M30.0121 13.5799C29.7241 13.1319 28.3801 11.3079 27.9161 10.7479V9.86788H29.7081V8.10788H27.9161V4.82788H26.1241V8.10788H24.0281V9.86788H25.9481C25.5001 11.7719 24.5881 13.9639 23.6121 15.2439C23.9161 15.7079 24.3321 16.4599 24.5081 17.0039C25.1161 16.1719 25.6601 14.9719 26.1241 13.6599V19.7559H27.9161V13.0359C28.3161 13.7559 28.7161 14.5239 28.9401 15.0359L30.0121 13.5799ZM36.2201 11.5159C35.9161 12.7159 35.4521 13.8199 34.8921 14.7799C34.2681 13.8039 33.8041 12.6999 33.4681 11.5159H36.2201ZM37.1481 9.73988L36.8121 9.80388H32.2361V7.53188H38.4281V5.77188H30.4121V10.2839C30.4121 12.7799 30.2521 16.2519 28.4441 18.6199C28.8761 18.8279 29.6441 19.4199 29.9641 19.7559C31.4041 17.8999 31.9481 15.1959 32.1401 12.7959C32.5721 14.1079 33.1001 15.2919 33.7721 16.3159C33.0201 17.1639 32.1401 17.8359 31.1801 18.2839C31.5801 18.6199 32.0601 19.3239 32.3161 19.7719C33.2761 19.2439 34.1401 18.6039 34.9081 17.8039C35.6761 18.6359 36.5721 19.3239 37.6121 19.8359C37.9001 19.3399 38.4601 18.6039 38.8921 18.2359C37.8041 17.7879 36.8761 17.1319 36.0921 16.3159C37.1641 14.6999 37.9321 12.6519 38.3321 10.1079L37.1481 9.73988ZM44.8601 9.88388H46.3961V8.12388H44.8601V4.82788H43.1321V8.12388H41.3081V9.88388H43.0201C42.6201 11.7719 41.8041 13.9799 40.9241 15.2439C41.1961 15.6919 41.5801 16.4279 41.7561 16.9399C42.2681 16.1719 42.7321 15.0999 43.1321 13.9159V19.7559H44.8601V12.9399C45.1961 13.6279 45.5321 14.3639 45.7081 14.8279L46.6361 13.4999C46.3801 13.0839 45.3081 11.3559 44.8601 10.7159V9.88388ZM51.8041 17.2759H50.5081V16.3319H51.8041V17.2759ZM55.6281 13.2279H46.7161V19.7719H48.4441V14.6359H53.8681V17.9799C53.8681 18.1559 53.8041 18.2039 53.6121 18.2199H53.1641V15.2599H49.1641V18.9719H50.5081V18.3479H52.3001C52.4761 18.7639 52.6841 19.3399 52.7481 19.7559C53.7241 19.7559 54.4121 19.7399 54.9401 19.4839C55.4841 19.2119 55.6281 18.7799 55.6281 18.0119V13.2279ZM52.1721 11.5639H50.0601V10.6999H52.1721V11.5639ZM51.8841 8.84388C52.0281 9.09988 52.1881 9.33988 52.3481 9.57988H49.9801C50.1401 9.33988 50.3001 9.09988 50.4441 8.84388H51.8841ZM55.7881 8.84388V7.40388H51.1161C51.2121 7.14788 51.2921 6.89188 51.3561 6.63588C52.6841 6.52388 53.9481 6.36388 54.9881 6.13988L53.9321 4.90788C52.2361 5.29188 49.3241 5.51588 46.8441 5.57988C47.0201 5.91588 47.1961 6.47588 47.2281 6.81188C47.9641 6.81188 48.7641 6.79588 49.5481 6.74788C49.4841 6.97188 49.4041 7.19588 49.3081 7.40388H46.5881V8.84388H48.4761C47.8841 9.62788 47.0681 10.3319 45.9801 10.9079C46.3481 11.1479 46.8761 11.7239 47.1161 12.1399C47.6281 11.8519 48.0761 11.5159 48.4921 11.1799V12.6999H53.8201V11.2439C54.2361 11.6119 54.6681 11.9319 55.1161 12.1719C55.3721 11.7559 55.8841 11.1479 56.2521 10.8279C55.2761 10.3959 54.3161 9.67588 53.6281 8.84388H55.7881ZM61.6281 14.2839C61.6441 14.0119 61.6441 13.7559 61.6441 13.5159V13.2279H66.1241C66.4281 14.5559 66.8601 15.7399 67.4201 16.7319C66.7001 17.3079 65.9161 17.8039 65.0681 18.1719C65.3081 17.6919 65.4361 16.7159 65.5161 14.9239C65.5321 14.6999 65.5481 14.2839 65.5481 14.2839H61.6281ZM68.7961 10.6199L68.3801 10.9879C68.7801 11.1639 69.2281 11.4199 69.6281 11.6599H67.6761C67.6281 11.3079 67.5961 10.9719 67.5641 10.6199H68.7961ZM62.0121 8.60388H69.7241V9.35588H62.0121V8.60388ZM62.0121 6.68388H69.7241V7.41988H62.0121V6.68388ZM70.1401 13.3879C69.8041 14.1239 69.3401 14.8119 68.8121 15.4199C68.4921 14.7799 68.2201 14.0279 68.0121 13.2279H72.9401V11.6599H71.1321L71.5321 11.2759C71.2441 11.0839 70.8281 10.8439 70.3961 10.6199H71.6601V5.40388H60.1721V10.6199H65.7081C65.7401 10.9719 65.7721 11.3079 65.8201 11.6599H59.7561V13.4839C59.7561 15.0039 59.6281 17.1479 58.3641 18.6999C58.8121 18.9079 59.6281 19.5159 59.9641 19.8359C60.8441 18.7319 61.2921 17.2439 61.4841 15.8359H63.6441C63.5801 16.7159 63.5001 17.0999 63.3881 17.2439C63.2601 17.3879 63.1321 17.4039 62.9241 17.4039C62.7001 17.4039 62.2201 17.4039 61.6761 17.3399C61.9321 17.7719 62.1081 18.4439 62.1401 18.9399C62.8441 18.9719 63.5161 18.9559 63.8841 18.8919C64.3001 18.8279 64.6201 18.7159 64.9081 18.3959C65.3081 18.7479 65.8681 19.3399 66.1241 19.6759C66.9241 19.2599 67.6921 18.7639 68.4121 18.1879C69.2121 19.0839 70.1241 19.6439 71.1001 19.6439C72.4121 19.6439 72.9721 19.1799 73.2601 17.1319C72.7961 16.9879 72.2201 16.6679 71.8361 16.3159C71.7401 17.4679 71.6121 17.8679 71.2281 17.8839C70.7641 17.8839 70.2521 17.5319 69.7561 16.9559C70.6201 16.0759 71.3401 15.0519 71.9001 13.9159L70.1401 13.3879ZM79.5001 9.01988H86.5721V9.88388H79.5001V9.01988ZM79.5001 6.82788H86.5721V7.67588H79.5001V6.82788ZM84.1401 17.7239V16.6359H88.4281V15.1479H84.1401V14.1719H89.1641V12.6039H84.1401V11.6279H82.1721V12.6039H79.8521C80.0281 12.2999 80.1721 12.0119 80.3161 11.7239L78.9881 11.3399H88.5561V5.38788H77.6281V11.3399H78.3641C77.7881 12.5879 76.7801 13.8039 75.7241 14.6039C76.1721 14.8439 76.9401 15.4359 77.3081 15.7719C77.8041 15.3399 78.3161 14.7799 78.7801 14.1719H82.1721V15.1479H78.0441V16.6359H82.1721V17.7239H76.0761V19.3719H90.1721V17.7239H84.1401ZM155.332 11.4839H152.036V10.8119H155.332V11.4839ZM153.268 13.0999H152.036V12.4919H153.268V13.0999ZM153.268 9.22788V9.80388H152.036V9.22788H153.268ZM153.284 7.88388H155.172V7.19588H158.58V7.88388H158.692C158.324 9.06788 157.668 10.2039 156.82 10.9879V9.80388H154.82V9.22788H157.252V8.10788H150.5V14.2359H157.332V13.0999H154.82V12.4919H156.82V11.2119C157.236 11.4519 157.828 11.8679 158.116 12.1239C158.5 11.7559 158.852 11.3079 159.188 10.7959H163.86V9.29188H159.988C160.132 8.93988 160.276 8.58788 160.388 8.21988L158.772 7.88388H160.484V7.19588H164.052V5.61188H160.484V4.84388H158.58V5.61188H155.172V4.84388H153.284V5.61188H149.78V7.19588H153.284V7.88388ZM163.46 13.7719V12.2839H158.26V13.7719H163.46ZM153.108 16.0919H154.596V17.7239H153.108V16.0919ZM157.7 16.0919V17.7239H156.18V16.0919H157.7ZM160.82 16.0919V17.7239H159.3V16.0919H160.82ZM162.676 17.7239V14.7159H151.364V17.7239H149.668V19.2759H164.148V17.7239H162.676ZM169.908 16.1879V8.33188H178.388V16.1879H169.908ZM167.908 6.39588V19.4519H169.908V18.1559H178.388V19.4199H180.484V6.39588H167.908ZM193.46 11.9639H195.668V12.7479H193.46V11.9639ZM193.46 9.89988H195.668V10.6359H193.46V9.89988ZM197.476 14.0119V11.9639H198.9V10.6359H197.476V8.63588H193.46V7.85188H198.724V6.18788H192.948V4.84388H190.964V6.18788H185.252V10.8279C185.252 13.1799 185.156 16.5079 183.844 18.7959C184.26 18.9879 185.06 19.5159 185.38 19.8359C186.82 17.3559 187.06 13.4199 187.06 10.8279V7.85188H191.62V8.63588H188.276V9.89988H191.62V10.6359H187.364V11.9639H191.62V12.7479H188.1V14.0119H188.324L187.348 14.9719C188.132 15.4039 189.108 16.0599 189.604 16.5079L190.692 15.3879C190.196 14.9559 189.236 14.3959 188.468 14.0119H191.62V17.8839C191.62 18.1399 191.54 18.2199 191.252 18.2199C191.044 18.2359 190.388 18.2359 189.716 18.2039C190.196 17.9799 190.692 17.7559 191.172 17.5159L190.836 16.1559C189.3 16.7479 187.732 17.3399 186.676 17.6599L187.556 19.1799C188.1 18.9559 188.692 18.6839 189.3 18.3959C189.508 18.8439 189.716 19.3879 189.78 19.7879C191.092 19.7879 192.004 19.7719 192.612 19.5159C193.236 19.2599 193.46 18.8439 193.46 17.8999V16.3479C194.42 17.8359 195.748 18.9559 197.492 19.5959C197.748 19.1159 198.26 18.4279 198.644 18.0599C197.556 17.7559 196.628 17.2599 195.86 16.6199C196.628 16.2199 197.492 15.7079 198.276 15.1959L196.884 14.0759C196.356 14.5239 195.572 15.1159 194.836 15.5639C194.468 15.0839 194.164 14.5719 193.924 14.0119H197.476ZM215.86 11.6599V9.99588H208.292C208.516 9.56388 208.724 9.14788 208.9 8.69988L208.02 8.45988C208.484 8.33188 208.932 8.18788 209.364 8.04388C210.98 8.61988 212.42 9.19588 213.428 9.69188L214.884 8.37988C214.036 7.97988 212.964 7.56388 211.78 7.14788C212.708 6.74788 213.588 6.29988 214.34 5.83588L212.756 4.74788C211.844 5.33988 210.66 5.88388 209.316 6.33188C207.604 5.80388 205.844 5.32388 204.372 4.97188L203.044 6.07588C204.164 6.36388 205.396 6.73188 206.644 7.13188C205.124 7.51588 203.508 7.80388 201.972 8.02788C202.372 8.39588 202.964 9.19588 203.268 9.61188C204.372 9.38788 205.54 9.14788 206.708 8.82788C206.564 9.21188 206.372 9.61188 206.164 9.99588H201.636V11.6599H205.076C204.036 12.9879 202.724 14.1719 201.156 14.9719C201.556 15.3239 202.132 15.9959 202.42 16.3959C203.06 16.0599 203.636 15.6599 204.196 15.1959V18.9559H206.084V14.8919H208.356V19.7719H210.196V14.8919H212.708V17.0039C212.708 17.1799 212.628 17.2439 212.42 17.2439C212.212 17.2439 211.476 17.2439 210.836 17.2119C211.076 17.6759 211.332 18.3319 211.412 18.8439C212.484 18.8439 213.268 18.8279 213.86 18.5719C214.452 18.2999 214.612 17.8679 214.612 17.0199V13.2279H210.196V11.9159H208.356V13.2279H206.196C206.612 12.7159 206.996 12.2039 207.348 11.6599H215.86Z" fill="#444545"/>
</svg>
