<svg width="257" height="25" viewBox="0 0 257 25" fill="none" xmlns="http://www.w3.org/2000/svg">
<path d="M6.11749 17.2377C6.1667 16.8994 6.09289 16.638 5.89605 16.4534C5.6992 16.2627 5.45315 16.1182 5.15789 16.0197C4.86262 15.9213 4.59197 15.8414 4.34591 15.7798C3.97068 15.6876 3.59545 15.5707 3.22022 15.4292C2.85114 15.2816 2.51282 15.0971 2.20525 14.8756C1.89768 14.6542 1.65471 14.3835 1.47632 14.0636C1.29793 13.7376 1.21796 13.3501 1.23642 12.901C1.26102 12.3843 1.39635 11.9322 1.6424 11.5447C1.88846 11.1571 2.20525 10.8342 2.59278 10.5758C2.98647 10.3175 3.41706 10.1268 3.88456 10.0038C4.35206 9.88073 4.81649 9.82229 5.27784 9.82844C5.92373 9.84074 6.51733 9.96684 7.05865 10.2067C7.60612 10.4466 8.04286 10.8003 8.36888 11.2678C8.70105 11.7354 8.86406 12.3136 8.85791 13.0025L6.69879 12.9933C6.7111 12.6857 6.65574 12.4212 6.53271 12.1998C6.41583 11.9722 6.2436 11.7969 6.016 11.6738C5.7884 11.5508 5.51466 11.4862 5.1948 11.4801C4.91799 11.4739 4.64425 11.5201 4.37359 11.6185C4.10909 11.7169 3.88149 11.8645 3.6908 12.0614C3.5001 12.2582 3.38323 12.5073 3.34017 12.8088C3.30326 13.0425 3.33709 13.2363 3.44167 13.3901C3.54624 13.5377 3.6908 13.6576 3.87534 13.7499C4.05988 13.8422 4.25364 13.9191 4.45664 13.9806C4.66578 14.0359 4.8534 14.0821 5.01948 14.119C5.54235 14.2605 6.05598 14.4419 6.56039 14.6634C7.0648 14.8787 7.47694 15.1832 7.79681 15.5769C8.11668 15.9644 8.26123 16.4749 8.23048 17.1085C8.21202 17.6499 8.07054 18.1174 7.80603 18.511C7.54153 18.8986 7.2032 19.2184 6.79106 19.4706C6.37893 19.7167 5.9268 19.8982 5.4347 20.015C4.94874 20.1319 4.46894 20.1873 3.99529 20.1811C3.34325 20.1688 2.72811 20.0335 2.14989 19.7751C1.57782 19.5168 1.11647 19.1446 0.76584 18.6587C0.421366 18.1666 0.249129 17.5668 0.249129 16.8594L2.34366 16.8686C2.34366 17.2254 2.4144 17.5268 2.55588 17.7729C2.70351 18.0189 2.9065 18.2065 3.16486 18.3357C3.42936 18.4588 3.73693 18.5233 4.08756 18.5295C4.37667 18.5295 4.66578 18.4895 4.95489 18.4095C5.25016 18.3234 5.50236 18.185 5.71151 17.9943C5.9268 17.8036 6.06213 17.5514 6.11749 17.2377ZM13.1577 12.0614L11.1093 23.835H8.93173L11.3307 10.013H13.333L13.1577 12.0614ZM18.9522 14.8571L18.9338 15.0509C18.86 15.6537 18.7154 16.2627 18.5001 16.8779C18.291 17.4868 18.0049 18.0466 17.642 18.5572C17.2852 19.0616 16.8454 19.4645 16.3225 19.7659C15.7997 20.0673 15.1845 20.2088 14.4771 20.1903C13.8559 20.178 13.333 20.0304 12.9086 19.7475C12.4841 19.4583 12.1458 19.0831 11.8936 18.6218C11.6414 18.1604 11.463 17.656 11.3584 17.1085C11.26 16.5549 11.2231 16.0074 11.2477 15.4661L11.34 14.728C11.4384 14.1436 11.6045 13.5592 11.8382 12.9748C12.0781 12.3905 12.3857 11.8584 12.7609 11.3786C13.1362 10.8926 13.5821 10.5082 14.0988 10.2252C14.6156 9.94224 15.2092 9.80999 15.8796 9.82844C16.5624 9.84689 17.1191 10.0099 17.5497 10.3175C17.9803 10.625 18.3063 11.0249 18.5278 11.517C18.7554 12.0091 18.8969 12.5473 18.9522 13.1317C19.0138 13.7161 19.0138 14.2912 18.9522 14.8571ZM16.7562 15.0417L16.7839 14.8387C16.8147 14.525 16.8239 14.1836 16.8116 13.8145C16.8054 13.4454 16.7531 13.0979 16.6547 12.7718C16.5563 12.4397 16.3871 12.1659 16.1472 11.9506C15.9135 11.7354 15.5875 11.6216 15.1692 11.6092C14.7878 11.5908 14.4433 11.6523 14.1357 11.7938C13.8282 11.9291 13.5575 12.1198 13.3238 12.3659C13.09 12.6119 12.8932 12.8918 12.7332 13.2055C12.5795 13.5192 12.4687 13.8453 12.4011 14.1836L12.115 15.9921C12.0966 16.3981 12.1519 16.7856 12.2811 17.1547C12.4165 17.5176 12.6256 17.8159 12.9086 18.0497C13.1977 18.2834 13.5637 18.4065 14.0066 18.4188C14.4618 18.4311 14.8524 18.3357 15.1784 18.1327C15.5044 17.9297 15.7751 17.6591 15.9904 17.3208C16.2057 16.9763 16.3748 16.6041 16.4979 16.2043C16.627 15.7983 16.7132 15.4108 16.7562 15.0417ZM20.364 15.1709L20.3916 14.9586C20.4655 14.2697 20.6346 13.6146 20.8991 12.9933C21.1636 12.372 21.5143 11.8215 21.951 11.3417C22.3939 10.8557 22.9137 10.4774 23.5104 10.2067C24.1132 9.93609 24.7837 9.80999 25.5219 9.82844C26.2354 9.84074 26.8475 9.98837 27.358 10.2713C27.8747 10.5543 28.293 10.9326 28.6129 11.4063C28.9389 11.8738 29.1665 12.4089 29.2957 13.0118C29.4249 13.6084 29.4587 14.2328 29.3972 14.8848L29.3787 15.0971C29.2988 15.786 29.1235 16.438 28.8528 17.0532C28.5883 17.6683 28.2346 18.2158 27.7917 18.6956C27.355 19.1692 26.8352 19.5414 26.2323 19.812C25.6357 20.0765 24.9713 20.1996 24.2393 20.1811C23.5319 20.1688 22.9198 20.0243 22.4031 19.7475C21.8926 19.4645 21.4743 19.0893 21.1483 18.6218C20.8284 18.1543 20.6039 17.6252 20.4747 17.0347C20.3455 16.438 20.3086 15.8168 20.364 15.1709ZM22.5508 14.9586L22.5323 15.1709C22.5016 15.5092 22.4985 15.866 22.5231 16.2412C22.5477 16.6164 22.6215 16.9671 22.7445 17.2931C22.8676 17.6191 23.0582 17.8867 23.3166 18.0958C23.575 18.305 23.9194 18.4157 24.35 18.428C24.8052 18.4403 25.202 18.348 25.5403 18.1512C25.8786 17.9543 26.1616 17.6898 26.3892 17.3577C26.6168 17.0255 26.7983 16.6626 26.9336 16.2689C27.0689 15.869 27.1581 15.4784 27.2012 15.0971L27.2196 14.8848C27.2565 14.5527 27.2627 14.199 27.2381 13.8237C27.2135 13.4423 27.1397 13.0856 27.0166 12.7534C26.8936 12.4151 26.7029 12.1413 26.4446 11.9322C26.1862 11.7169 25.8417 11.6031 25.4111 11.5908C24.9498 11.5785 24.5499 11.6738 24.2116 11.8768C23.8733 12.0737 23.5903 12.3413 23.3627 12.6796C23.1351 13.0179 22.9537 13.387 22.8183 13.7868C22.6892 14.1867 22.6 14.5773 22.5508 14.9586ZM33.8077 12.2736L32.4698 19.9966H30.2922L32.0269 10.013H34.066L33.8077 12.2736ZM33.0419 14.6357L32.3775 14.6449C32.4513 14.0482 32.5959 13.4608 32.8112 12.8826C33.0326 12.2982 33.3248 11.7753 33.6877 11.314C34.0507 10.8465 34.4905 10.4774 35.0072 10.2067C35.5301 9.93609 36.1329 9.80999 36.8157 9.82844C37.357 9.84074 37.8061 9.94839 38.1628 10.1514C38.5258 10.3544 38.8056 10.6281 39.0025 10.9726C39.2055 11.3171 39.3377 11.7107 39.3992 12.1536C39.4608 12.5965 39.4638 13.061 39.4085 13.5469L38.3381 19.9966H36.1513L37.2401 13.5192C37.277 13.1625 37.2647 12.8426 37.2032 12.5596C37.1417 12.2705 37.0064 12.0429 36.7972 11.8768C36.5881 11.7046 36.2867 11.6154 35.893 11.6092C35.4624 11.5969 35.0841 11.6769 34.7581 11.8491C34.4321 12.0214 34.1522 12.2582 33.9184 12.5596C33.6847 12.8549 33.494 13.184 33.3463 13.5469C33.2049 13.9098 33.1034 14.2728 33.0419 14.6357ZM46.4948 17.2377C46.544 16.8994 46.4702 16.638 46.2734 16.4534C46.0765 16.2627 45.8305 16.1182 45.5352 16.0197C45.2399 15.9213 44.9693 15.8414 44.7232 15.7798C44.348 15.6876 43.9728 15.5707 43.5975 15.4292C43.2284 15.2816 42.8901 15.0971 42.5826 14.8756C42.275 14.6542 42.032 14.3835 41.8536 14.0636C41.6752 13.7376 41.5953 13.3501 41.6137 12.901C41.6383 12.3843 41.7737 11.9322 42.0197 11.5447C42.2658 11.1571 42.5826 10.8342 42.9701 10.5758C43.3638 10.3175 43.7944 10.1268 44.2619 10.0038C44.7294 9.88073 45.1938 9.82229 45.6551 9.82844C46.301 9.84074 46.8946 9.96684 47.436 10.2067C47.9834 10.4466 48.4202 10.8003 48.7462 11.2678C49.0784 11.7354 49.2414 12.3136 49.2352 13.0025L47.0761 12.9933C47.0884 12.6857 47.033 12.4212 46.91 12.1998C46.7931 11.9722 46.6209 11.7969 46.3933 11.6738C46.1657 11.5508 45.892 11.4862 45.5721 11.4801C45.2953 11.4739 45.0216 11.5201 44.7509 11.6185C44.4864 11.7169 44.2588 11.8645 44.0681 12.0614C43.8774 12.2582 43.7605 12.5073 43.7175 12.8088C43.6806 13.0425 43.7144 13.2363 43.819 13.3901C43.9235 13.5377 44.0681 13.6576 44.2526 13.7499C44.4372 13.8422 44.631 13.9191 44.8339 13.9806C45.0431 14.0359 45.2307 14.0821 45.3968 14.119C45.9197 14.2605 46.4333 14.4419 46.9377 14.6634C47.4421 14.8787 47.8542 15.1832 48.1741 15.5769C48.494 15.9644 48.6385 16.4749 48.6078 17.1085C48.5893 17.6499 48.4478 18.1174 48.1833 18.511C47.9188 18.8986 47.5805 19.2184 47.1684 19.4706C46.7562 19.7167 46.3041 19.8982 45.812 20.015C45.3261 20.1319 44.8462 20.1873 44.3726 20.1811C43.7206 20.1688 43.1054 20.0335 42.5272 19.7751C41.9551 19.5168 41.4938 19.1446 41.1431 18.6587C40.7987 18.1666 40.6264 17.5668 40.6264 16.8594L42.721 16.8686C42.721 17.2254 42.7917 17.5268 42.9332 17.7729C43.0808 18.0189 43.2838 18.2065 43.5422 18.3357C43.8067 18.4588 44.1142 18.5233 44.4649 18.5295C44.754 18.5295 45.0431 18.4895 45.3322 18.4095C45.6275 18.3234 45.8797 18.185 46.0888 17.9943C46.3041 17.8036 46.4394 17.5514 46.4948 17.2377ZM50.4255 15.1709L50.4532 14.9586C50.527 14.2697 50.6962 13.6146 50.9607 12.9933C51.2252 12.372 51.5758 11.8215 52.0125 11.3417C52.4554 10.8557 52.9752 10.4774 53.5719 10.2067C54.1747 9.93609 54.8452 9.80999 55.5834 9.82844C56.2969 9.84074 56.909 9.98837 57.4196 10.2713C57.9363 10.5543 58.3546 10.9326 58.6744 11.4063C59.0004 11.8738 59.228 12.4089 59.3572 13.0118C59.4864 13.6084 59.5202 14.2328 59.4587 14.8848L59.4403 15.0971C59.3603 15.786 59.185 16.438 58.9143 17.0532C58.6498 17.6683 58.2961 18.2158 57.8532 18.6956C57.4165 19.1692 56.8967 19.5414 56.2939 19.812C55.6972 20.0765 55.0328 20.1996 54.3008 20.1811C53.5934 20.1688 52.9814 20.0243 52.4647 19.7475C51.9541 19.4645 51.5358 19.0893 51.2098 18.6218C50.8899 18.1543 50.6654 17.6252 50.5362 17.0347C50.407 16.438 50.3701 15.8168 50.4255 15.1709ZM52.6123 14.9586L52.5938 15.1709C52.5631 15.5092 52.56 15.866 52.5846 16.2412C52.6092 16.6164 52.683 16.9671 52.8061 17.2931C52.9291 17.6191 53.1198 17.8867 53.3781 18.0958C53.6365 18.305 53.981 18.4157 54.4116 18.428C54.8668 18.4403 55.2635 18.348 55.6018 18.1512C55.9402 17.9543 56.2231 17.6898 56.4507 17.3577C56.6783 17.0255 56.8598 16.6626 56.9951 16.2689C57.1304 15.869 57.2196 15.4784 57.2627 15.0971L57.2812 14.8848C57.3181 14.5527 57.3242 14.199 57.2996 13.8237C57.275 13.4423 57.2012 13.0856 57.0782 12.7534C56.9551 12.4151 56.7644 12.1413 56.5061 11.9322C56.2477 11.7169 55.9033 11.6031 55.4727 11.5908C55.0113 11.5785 54.6115 11.6738 54.2732 11.8768C53.9348 12.0737 53.6519 12.3413 53.4243 12.6796C53.1967 13.0179 53.0152 13.387 52.8799 13.7868C52.7507 14.1867 52.6615 14.5773 52.6123 14.9586ZM63.943 12.0245L62.559 19.9966H60.3907L62.1253 10.013H64.1829L63.943 12.0245ZM67.1909 9.92994L66.951 12.006C66.8096 11.9814 66.665 11.9599 66.5174 11.9414C66.3759 11.923 66.2344 11.9137 66.0929 11.9137C65.7177 11.9076 65.3794 11.9599 65.078 12.0706C64.7765 12.1813 64.512 12.3413 64.2844 12.5504C64.0568 12.7534 63.8661 12.9994 63.7124 13.2886C63.5586 13.5715 63.4386 13.8883 63.3525 14.2389L62.8358 14.2758C62.8973 13.7899 63.0019 13.2855 63.1495 12.7626C63.3033 12.2398 63.5155 11.7538 63.7862 11.3048C64.0568 10.8496 64.4013 10.4836 64.8196 10.2067C65.2379 9.92378 65.7454 9.78846 66.3421 9.80076C66.4835 9.80076 66.625 9.81306 66.7665 9.83767C66.908 9.86227 67.0495 9.89303 67.1909 9.92994ZM71.1585 20.1811C70.4757 20.1688 69.8698 20.0366 69.3408 19.7844C68.818 19.526 68.3843 19.1785 68.0398 18.7417C67.6953 18.2988 67.4462 17.7913 67.2924 17.2193C67.1387 16.641 67.0864 16.0259 67.1356 15.3739L67.1725 14.9956C67.2401 14.3251 67.4032 13.6792 67.6615 13.0579C67.9199 12.4305 68.2643 11.8738 68.6949 11.3878C69.1317 10.8957 69.6453 10.5082 70.2358 10.2252C70.8264 9.94224 71.4846 9.80999 72.2104 9.82844C72.9055 9.84074 73.493 9.9853 73.9728 10.2621C74.4526 10.5389 74.834 10.908 75.1169 11.3693C75.3999 11.8245 75.5875 12.3413 75.6798 12.9195C75.7782 13.4977 75.7936 14.0975 75.7259 14.7187L75.5967 15.6691H68.1044L68.3628 14.0729L73.6498 14.0821L73.6867 13.8883C73.7421 13.5008 73.7206 13.1348 73.6222 12.7903C73.5299 12.4458 73.3576 12.1629 73.1054 11.9414C72.8532 11.72 72.5149 11.6031 72.0905 11.5908C71.6291 11.5785 71.2324 11.6738 70.9002 11.8768C70.5742 12.0798 70.3035 12.3536 70.0882 12.698C69.8729 13.0425 69.7038 13.4177 69.5807 13.8237C69.4639 14.2236 69.3808 14.6142 69.3316 14.9956L69.2947 15.3646C69.2578 15.7276 69.267 16.0874 69.3224 16.4442C69.3777 16.801 69.4854 17.127 69.6453 17.4223C69.8053 17.7114 70.0267 17.9482 70.3097 18.1327C70.5926 18.3111 70.9432 18.4065 71.3615 18.4188C71.8844 18.4311 72.3581 18.3234 72.7825 18.0958C73.2131 17.8621 73.6037 17.5607 73.9543 17.1916L75.0247 18.3265C74.7417 18.7509 74.3911 19.1016 73.9728 19.3784C73.5606 19.6552 73.1116 19.8613 72.6256 19.9966C72.1458 20.1258 71.6568 20.1873 71.1585 20.1811ZM82.7753 17.8006L84.8514 5.82393H87.0382L84.5746 19.9966H82.6185L82.7753 17.8006ZM76.9439 15.1893L76.9623 14.9956C77.0423 14.3804 77.1868 13.7653 77.396 13.1502C77.6113 12.535 77.9004 11.9722 78.2633 11.4616C78.6324 10.9511 79.0815 10.5451 79.6105 10.2437C80.1456 9.94224 80.7731 9.80076 81.4928 9.81921C82.1202 9.83767 82.6431 10.0007 83.0614 10.3082C83.4797 10.6158 83.8057 11.0126 84.0394 11.4985C84.2793 11.9845 84.4423 12.5104 84.5285 13.0763C84.6146 13.6361 84.6423 14.1836 84.6115 14.7187L84.5377 15.3462C84.4393 15.9121 84.2732 16.4842 84.0394 17.0624C83.8057 17.6406 83.5012 18.1696 83.126 18.6494C82.7569 19.1292 82.314 19.5106 81.7973 19.7936C81.2867 20.0765 80.7023 20.2088 80.0441 20.1903C79.3859 20.1657 78.8416 19.9997 78.411 19.6921C77.9804 19.3784 77.6482 18.9755 77.4144 18.4834C77.1807 17.9851 77.03 17.4499 76.9623 16.8779C76.8947 16.2996 76.8885 15.7368 76.9439 15.1893ZM79.1583 14.9771L79.1399 15.1709C79.103 15.4907 79.0876 15.8321 79.0938 16.1951C79.0999 16.558 79.1491 16.9055 79.2414 17.2377C79.3398 17.5637 79.5028 17.8344 79.7304 18.0497C79.9642 18.265 80.2902 18.3819 80.7085 18.4003C81.1944 18.4188 81.625 18.308 82.0003 18.0681C82.3816 17.8282 82.6984 17.5145 82.9506 17.127C83.2028 16.7395 83.3812 16.3273 83.4858 15.8906L83.7442 14.202C83.7626 13.8945 83.7411 13.59 83.6796 13.2886C83.6242 12.9871 83.5227 12.7134 83.3751 12.4674C83.2275 12.2213 83.0306 12.0214 82.7846 11.8676C82.5447 11.7077 82.2525 11.6246 81.908 11.6185C81.4528 11.6 81.0591 11.6923 80.7269 11.8953C80.4009 12.0983 80.1303 12.3689 79.915 12.7073C79.7058 13.0456 79.5397 13.4147 79.4167 13.8145C79.2937 14.2143 79.2076 14.6019 79.1583 14.9771ZM93.94 5.82393H96.1176L94.0046 17.9943L93.4602 19.9966H91.4764L93.94 5.82393ZM100.842 14.8571L100.823 15.0509C100.743 15.666 100.599 16.2812 100.39 16.8963C100.187 17.5053 99.9037 18.062 99.5408 18.5664C99.184 19.0708 98.7411 19.4737 98.2121 19.7751C97.6892 20.0704 97.071 20.2088 96.3575 20.1903C95.7239 20.178 95.1949 20.0212 94.7704 19.7198C94.3521 19.4184 94.023 19.0277 93.7831 18.5479C93.5432 18.0681 93.3802 17.5484 93.2941 16.9886C93.208 16.4227 93.1772 15.869 93.2018 15.3277L93.2756 14.7003C93.3802 14.1282 93.5463 13.5531 93.7739 12.9748C94.0076 12.3905 94.3091 11.8584 94.6781 11.3786C95.0472 10.8926 95.487 10.5082 95.9976 10.2252C96.5143 9.93609 97.1018 9.80076 97.76 9.81921C98.4489 9.83767 99.0087 10.0038 99.4393 10.3175C99.8699 10.625 100.196 11.0249 100.417 11.517C100.645 12.0091 100.786 12.5473 100.842 13.1317C100.903 13.7161 100.903 14.2912 100.842 14.8571ZM98.6457 15.0417L98.6734 14.8387C98.7103 14.525 98.7257 14.1836 98.7196 13.8145C98.7196 13.4454 98.6734 13.0948 98.5812 12.7626C98.4889 12.4305 98.3259 12.1598 98.0921 11.9506C97.8645 11.7354 97.5354 11.6216 97.1048 11.6092C96.7235 11.5908 96.379 11.6523 96.0714 11.7938C95.7638 11.9291 95.4932 12.1198 95.2594 12.3659C95.0257 12.6058 94.8319 12.8826 94.6781 13.1963C94.5244 13.51 94.4075 13.836 94.3275 14.1744L94.0692 15.8629C94.0507 16.275 94.103 16.6718 94.226 17.0532C94.349 17.4346 94.552 17.7513 94.835 18.0036C95.118 18.2496 95.4901 18.3788 95.9515 18.3911C96.4128 18.4095 96.8034 18.3173 97.1233 18.1143C97.4493 17.9113 97.7138 17.6437 97.9168 17.3115C98.126 16.9794 98.289 16.6134 98.4058 16.2135C98.5227 15.8137 98.6027 15.4231 98.6457 15.0417ZM104.699 18.7971L108.814 10.013H111.213L105.363 21.5283C105.197 21.8727 105.006 22.1988 104.791 22.5063C104.582 22.8139 104.342 23.0845 104.071 23.3183C103.801 23.552 103.496 23.7335 103.158 23.8627C102.826 23.998 102.45 24.0657 102.032 24.0657C101.841 24.0595 101.654 24.038 101.469 24.0011C101.279 23.9703 101.091 23.9334 100.906 23.8904L101.063 22.1834C101.131 22.1895 101.199 22.1957 101.266 22.2018C101.334 22.2141 101.402 22.2203 101.469 22.2203C101.82 22.2326 102.127 22.1865 102.392 22.0819C102.656 21.9835 102.887 21.8297 103.084 21.6205C103.287 21.4114 103.465 21.1561 103.619 20.8547L104.699 18.7971ZM104.717 10.013L105.732 17.5976L105.714 19.8674L104.2 20.2549L102.447 10.013H104.717Z" fill="white"/>
<path d="M122.814 3.3847V17.8194H125.272C128.222 17.8194 129.197 16.4961 129.685 15.8344C131.058 13.9844 131.058 11.6607 131.058 10.4962C131.058 3.3847 127.308 3.3847 125.432 3.3847H122.814ZM119.68 0.740723H125.764C130.202 0.740723 131.672 2.54572 132.409 3.44557C134.411 5.91487 134.411 8.95319 134.411 10.4697C134.411 15.6571 132.536 17.4039 131.597 18.2772C129.253 20.4607 126.644 20.4607 125.342 20.4607H119.68V0.740723Z" fill="white"/>
<path d="M157.481 0.740723L151.533 12.3091V20.4634H148.344V12.3091L142.489 0.740723H146.001L149.614 8.07716C149.741 8.32594 150.029 8.96378 150.175 9.28137C150.473 8.59854 150.663 8.23331 150.758 8.05334L154.257 0.743369H157.483L157.481 0.740723Z" fill="white"/>
<path d="M182.416 0.741416V20.464H179.397V10.4969C179.397 8.21283 179.429 5.09246 179.444 3.5336H179.112C178.232 7.82907 177.82 9.44086 177.615 10.2481L175.157 20.464H171.463L169.073 10.3725C168.856 9.47792 167.971 5.51592 167.529 3.5336H167.198C167.266 6.95833 167.266 9.35088 167.266 10.5472V20.464H164.477V0.741416H169.612L171.899 10.8065C172.677 14.1704 173.035 16.2639 173.213 17.3093H173.545C173.74 16.4782 174.099 14.7659 174.277 13.9084C174.664 12.0584 174.857 11.2564 174.952 10.8542L177.273 0.73877H182.418L182.416 0.741416Z" fill="white"/>
<path d="M195.335 1.34961C197.381 1.474 198.609 1.474 199.224 1.474H204.474C206.876 1.474 207.905 1.40783 208.419 1.37343C208.705 1.37343 208.705 1.69632 208.705 1.85776C208.739 2.32886 208.739 2.62793 208.739 2.77614C208.739 3.24724 208.717 3.55425 208.705 3.70775C208.705 4.19208 208.5 4.19208 208.395 4.19208C206.486 4.11798 205.144 4.11798 204.471 4.11798H199.222C198.558 4.11798 196.781 4.18414 195.893 4.21855C195.527 4.21855 195.505 3.93007 195.493 3.7845C195.459 3.43779 195.427 2.87406 195.413 2.59352C195.357 1.72543 195.34 1.47665 195.332 1.35226L195.335 1.34961ZM203.855 10.0146C203.74 12.3357 203.518 13.3123 203.408 13.7993C203.111 15.165 202.684 16.0489 202.47 16.4936C201.75 18.0445 200.902 18.9814 200.48 19.4472C199.429 20.6011 198.712 21.0643 198.353 21.2972C197.907 21.6069 197.739 21.6069 197.656 21.6069C197.393 21.6069 197.242 21.4401 197.164 21.3581C196.408 20.5376 195.518 20.183 195.071 20.0056C196.959 18.902 197.683 18.1821 198.044 17.8222C199.061 16.8032 199.512 15.9193 199.736 15.4773C200.399 14.199 200.568 13.3044 200.65 12.8571C200.855 11.7773 200.902 10.6022 200.926 10.0146H196.478C195.357 10.0146 193.764 10.1152 192.967 10.1629C192.704 10.1999 192.674 9.85321 192.657 9.67853C192.474 8.53784 192.474 7.67504 192.474 7.24628C193.789 7.37067 195.566 7.37067 196.454 7.37067H206.976C209.48 7.37067 210.853 7.2701 211.538 7.22246C211.789 7.22246 211.789 7.56123 211.789 7.73061C211.811 7.98998 211.811 8.47167 211.811 8.70986C211.811 9.41651 211.796 9.59119 211.789 9.67853C211.789 10.1126 211.56 10.1126 211.445 10.1126C208.963 10.012 207.654 10.012 206.998 10.012H203.852L203.855 10.0146Z" fill="white"/>
<path d="M230.233 6.54006C232.006 7.13555 232.569 7.54842 232.852 7.75751C233.162 8.00629 233.162 8.13068 233.162 8.19155C233.162 8.40328 232.994 8.56737 232.911 8.65206C232.626 8.91143 232.343 9.59956 232.201 9.94362C230.68 13.8527 229.339 15.7556 228.668 16.7084C226.483 19.7361 224.723 20.9959 223.842 21.6232C223.499 21.8958 223.355 21.8958 223.282 21.8958C223.065 21.8958 222.957 21.7793 222.904 21.7211C222.126 21.0383 221.319 20.7815 220.914 20.6545C223.179 19.0295 224.008 18.2328 224.425 17.8358C225.557 16.7428 226.205 15.8244 226.53 15.3665C228.588 12.4632 229.326 10.3115 229.697 9.23432C230.121 7.90572 230.197 6.99528 230.233 6.54006ZM222.857 7.14878C224.354 6.37862 224.608 6.27275 224.732 6.21717C224.869 6.14307 224.937 6.14307 224.971 6.14307C225.166 6.14307 225.281 6.32568 225.337 6.41567C226.503 8.06716 226.929 9.44076 227.144 10.1262C227.2 10.3115 227.2 10.3856 227.2 10.4253C227.2 10.637 227.003 10.7508 226.903 10.8091C226.227 11.2299 225.603 11.4707 225.291 11.5898C225.198 11.6269 225.162 11.6269 225.142 11.6269C224.959 11.6269 224.867 11.3543 224.823 11.2166C223.964 8.82145 223.225 7.70457 222.855 7.14614L222.857 7.14878ZM218.146 8.44033C218.831 8.03011 219.609 7.63311 219.999 7.43462C220.136 7.36051 220.214 7.36051 220.251 7.36051C220.433 7.36051 220.548 7.52725 220.604 7.6093C222.011 9.53339 222.416 10.7588 222.616 11.3701C222.709 11.7301 222.708 11.746 222.708 11.7539C222.708 11.9153 222.526 12.0477 222.433 12.1138C221.701 12.5744 221.182 12.7887 220.924 12.8946C220.809 12.9449 220.748 12.9449 220.719 12.9449C220.48 12.9449 220.387 12.6802 220.341 12.5479C219.495 10.203 218.595 9.02788 218.146 8.44033Z" fill="white"/>
<path d="M249.039 4.16843L253.247 4.06786C254.025 4.04404 254.291 3.85348 254.425 3.7582C254.54 3.65763 254.662 3.65763 254.722 3.65763C254.893 3.65763 255.032 3.7582 255.1 3.80584C255.9 4.36428 256.427 4.90948 256.69 5.18473C257 5.4838 257 5.67171 257 5.76699C257 6.03959 256.81 6.21427 256.715 6.30161C256.281 6.67478 256.059 7.15382 255.949 7.39466C253.742 12.2592 252.118 14.2547 251.306 15.2525C249.704 17.2136 248.309 18.4311 247.612 19.0372C245.817 20.6013 244.735 21.255 244.193 21.5806C244.011 21.7049 243.881 21.7049 243.815 21.7049C243.564 21.7049 243.374 21.5223 243.279 21.4323C242.399 20.6754 241.499 20.4028 241.048 20.2652C243.896 18.5528 245.1 17.5259 245.703 17.0125C247.2 15.7103 248.3 14.4188 248.848 13.773C250.358 11.9601 250.999 10.8697 251.318 10.3218C252.211 8.80796 252.86 7.30997 253.181 6.56098L247.51 6.73565C244.696 10.5203 243.62 11.4731 243.084 11.9495C242.833 12.2353 242.672 12.2353 242.591 12.2353C242.421 12.2353 242.306 12.1348 242.248 12.0871C241.184 11.2561 240.392 11.0735 239.994 10.9835C243.918 7.50847 245.503 4.79303 246.295 3.43796C247.371 1.453 247.575 0.484332 247.678 0C249.668 0.770167 250.163 1.15922 250.411 1.35242C250.65 1.53769 250.65 1.70442 250.65 1.78647C250.65 2.04584 250.475 2.16229 250.387 2.22052C250.238 2.32109 249.948 2.70749 249.804 2.90334C249.553 3.33739 249.209 3.89318 249.039 4.16843Z" fill="white"/>
</svg>
